<?xml version="1.0" encoding="utf-8"?>
<!-- Generator: Adobe Illustrator 22.0.0, SVG Export Plug-In . SVG Version: 6.00 Build 0)  -->
<svg version="1.1" xmlns="http://www.w3.org/2000/svg" xmlns:xlink="http://www.w3.org/1999/xlink" x="0px" y="0px"
	 viewBox="0 0 1888 1888" style="enable-background:new 0 0 1888 1888;" xml:space="preserve">
<style type="text/css">
	.st0{fill:#0071C6;}
	.st1{fill:#E8E8E8;}
	.st2{fill:#004D7C;}
	.st3{opacity:0.69;fill:url(#SVGID_1_);}
	.st4{opacity:0.96;fill:url(#SVGID_2_);}
</style>
<g id="Layer_2">
</g>
<g id="Layer_1" xmlns:serif="http://www.serif.com/">
	<path class="st0" d="M1697.5,1887.9h-1507c-101.6,0-183.9-82.3-183.9-183.9V183.9C6.6,82.3,89,0,190.5,0h1507
		c101.6,0,183.9,82.3,183.9,183.9v1520.2C1881.4,1805.6,1799,1887.9,1697.5,1887.9z"/>
	<g transform="matrix(1,0,0,1.00424,-9.04262,-46.6219)">
		<path class="st1" d="M1174.6,866.2c-1.7,0.9-3.6,1.4-5.7,1.9c-114,20.3-236.2,2.3-327.4-40.7c-16.6-7.8-32.1-16.4-46.4-25.8
			c-74.5-48.8-115.9-117.3-105-194.2c10.3-72.6,64.4-134,128.1-179.6c63.1-45.3,134.3-75.5,169-88.8c2.3-0.9,4.5-1.3,6.8-1.4h0.3
			c9.6-0.3,18.5,5.5,21.7,15.1l0.6,1.6l9.6,29.1c3.6,11.2-1.9,23-12.9,27.2c-31.1,11.9-94.1,38.7-150.1,78.8
			c-46.5,33.5-89.6,75.8-97.2,128.6c-6.8,48.7,24.3,89.2,71.3,120.1c16.7,11,35.5,20.7,55.9,29c51.1,20.9,111.6,32.9,173.4,33.3
			c29.4,0.4,59.2-1.9,88.3-7.1c11.3-2,22.3,5.5,24.9,16.8l2.9,12.7l4.4,18.8C1189.3,851.9,1183.8,862,1174.6,866.2z"/>
	</g>
	<g transform="matrix(0.610537,0,0,0.655275,139.436,167.224)">
		<path class="st1" d="M1779.3,2055.1l-75.8,10.4l-68.1,9.3c-3.3-15.8-4.3-208.7-81.7-363.6c-33.1-66.8-80-127.6-154.4-153.4
			c-20.7-7.3-43.4-11.8-68.6-12.9c-116.3-5.1-191.1,73-246.1,161.2C986.9,1862.4,958.1,2062,958.1,2062l-106.5-10.2L813,2048
			c0,0,32.6-221.8,141.3-395.6c75.3-120.8,188-215.8,340-225.3c14.5-0.9,29.3-1.1,44.6-0.4c52.4,2.2,99.1,13.1,140.6,30.9
			c69.3,29.3,123.6,77.2,165.3,135.4c16.9,23.1,31.7,47.9,44.6,73.7c68.4,137.2,82.9,301.9,87.9,364
			C1778.1,2043.6,1778.8,2052.2,1779.3,2055.1z"/>
	</g>
	<g transform="matrix(1,0,0,1,-15.2385,-72.335)">
		<path class="st1" d="M1150.1,1137.1c-0.1,0-0.4,0.1-0.6,0.1c-18,4.4-40.4,1.3-67.6-5.8c-49.2-12.8-119.9-38.5-220.8-18.8l-10.3-40
			c66.5-13.1,121.2-8.7,166.1,0c20.4,3.9,38.5,8.7,55.1,13.2c16,4.4,30.1,8.4,42.5,10.8c8.6,1.6,16.1,2.6,22.5,1l1.5,4.2l0.9,2.6
			l0.9,2.8l0.1,0.6L1150.1,1137.1z"/>
	</g>
	<g transform="matrix(1,0,0,1,-22.3653,-71.4477)">
		<path class="st1" d="M1072.9,1023c-18.6,8.4-36.9,3.8-57.9-5.7c-18-8-39.7-19.9-72-8l-15-30.8c26-9.6,47.4-9.3,65.9-5.1
			c9.7,2.2,18.5,5.5,26.8,9c7.6,3.3,14.5,6.7,21.2,9.3c4.8,1.7,8.9,3.6,13.4,1.6L1072.9,1023z"/>
	</g>
</g>
<g id="Layer_3">
	<path class="st2" d="M1603.9,1382.8c-2.5,7.6-5.1,15-8,22.3l-1.5-1.3c2.9-7.3,5.5-14.5,8-22.1L1603.9,1382.8z"/>
	<path class="st2" d="M1581.5,1435.6c-3.1,6-6.4,11.8-10,17.5l-1.2-1c3.5-5.7,6.8-11.6,9.9-17.6L1581.5,1435.6z"/>
	<path class="st2" d="M1345,1602.3c-1.5,0.3-2.9,0.6-4.4,0.7l-0.1-0.1C1342.1,1602.8,1343.6,1602.5,1345,1602.3z"/>
	<path class="st2" d="M1505.9,1529.4c-42,35.9-93.1,60.8-149.5,71c1.5-0.3,3.1-0.6,4.5-1c5.1-1,10.3-2.2,15.3-3.5
		c4.1-1,8-2,11.8-3.3c2.6-0.7,5.1-1.5,7.6-2.3c7.3-2.3,14.4-4.9,21.5-7.9c3.2-1.3,6.4-2.6,9.6-4.1c3.2-1.5,6.3-2.9,9.5-4.4
		c4.5-2.2,8.9-4.4,13.2-6.8c4.5-2.5,9-5.1,13.4-7.7c3.2-1.9,6.3-3.9,9.3-6c2.5-1.5,4.8-3.1,7.1-4.7c6.1-4.4,12.1-8.9,17.9-13.5
		c2.6-2,5.2-4.2,7.7-6.3c0.1-0.1,0.1-0.1,0.3-0.3L1505.9,1529.4z"/>
	<path class="st0" d="M1345,1602.3c5.4-0.9,10.6-1.7,15.9-2.9c-1.5,0.4-3.1,0.7-4.5,1C1352.6,1601.2,1348.8,1601.7,1345,1602.3z"/>
	<linearGradient id="SVGID_1_" gradientUnits="userSpaceOnUse" x1="1174.0336" y1="1590.7871" x2="812.9821" y2="1325.4065">
		<stop  offset="0" style="stop-color:#0071C6"/>
		<stop  offset="0.4686" style="stop-color:#095DAD"/>
		<stop  offset="1" style="stop-color:#14428C"/>
	</linearGradient>
	<path class="st3" d="M1340.5,1717.7H970.7l-246.3-199.3c0,0,17.6-130.8,77.2-233.2c33.6-57.7,79.3-108.9,150.3-105.6
		c15.4,0.7,29.2,3.6,41.9,8.4c45.4,16.9,74,56.7,94.3,100.5c47.3,101.5,47.9,227.9,49.9,238.3L1340.5,1717.7z"/>
	<linearGradient id="SVGID_2_" gradientUnits="userSpaceOnUse" x1="1634.1606" y1="1341.0919" x2="875.4045" y2="783.39">
		<stop  offset="0.4378" style="stop-color:#0071C6"/>
		<stop  offset="0.6944" style="stop-color:#095DAD"/>
		<stop  offset="0.9855" style="stop-color:#14428C"/>
	</linearGradient>
	<path class="st4" d="M1617.3,767v517.7c0,33.7-5.2,66.5-14.8,97c-2.5,7.6-5.1,14.8-8,22.1c-4.2,10.6-8.9,20.8-14.3,30.7
		c-3.1,6-6.4,11.9-9.9,17.6c-17.7,28.9-39.9,54.8-65.3,76.7c-0.1,0.1-0.1,0.1-0.3,0.3c-2.5,2-5.1,4.2-7.7,6.3
		c-5.8,4.7-11.8,9.2-17.9,13.5c-2.3,1.6-4.7,3.2-7.1,4.7c-3.1,2-6.1,4.1-9.3,6c-4.4,2.6-8.9,5.2-13.4,7.7c-4.4,2.5-8.7,4.7-13.2,6.8
		c-3.2,1.5-6.3,2.9-9.5,4.4c-3.2,1.5-6.4,2.8-9.6,4.1c-7.1,2.9-14.3,5.5-21.5,7.9c-2.5,0.9-4.9,1.6-7.6,2.3
		c-3.8,1.3-7.7,2.3-11.8,3.3c-5.1,1.3-10.2,2.5-15.3,3.5c-2.3,0.6-4.8,1-7.1,1.5c-2.9,0.4-5.8,1-8.7,1.5c-1.5,0.1-2.9,0.4-4.5,0.6
		c-1,0.1-2.2,0.3-3.2,0.4c-0.9,0.1-1.6,0.3-2.5,0.3c-1.7,0.3-3.5,0.4-5.2,0.6c-1.6,0.1-3.3,0.4-5.1,0.4c-3.9,0.4-7.9,0.7-11.8,0.9
		c-5.5,0.3-11.1,0.4-16.6,0.4H1217l-79.1-79.1l41.6-6.1l46.3-6.8c-0.3-1.9-0.7-7.6-1.3-16c-3.1-40.7-11.9-148.7-53.7-238.5
		c-7.9-16.9-16.9-33.2-27.2-48.3c-25.5-38.1-58.6-69.5-100.9-88.7c-25.3-11.6-53.8-18.8-85.8-20.2c-9.3-0.4-18.3-0.3-27.2,0.3
		l-83.8-62.1c100.9-19.8,171.6,6,220.8,18.8c27.2,7.1,49.6,10.2,67.6,5.8c0.1,0,0.4-0.1,0.6-0.1l-9.7-29.2l-0.1-0.6l-0.9-2.8
		l-0.9-2.6l-1.5-4.2c-6.4,1.6-14,0.6-22.5-1c-12.4-2.3-26.5-6.4-42.5-10.8c-16.6-4.5-34.8-9.3-55.1-13.2l-81-62.4
		c32.3-11.9,54,0,72,8c20.9,9.5,39.3,14.1,57.9,5.7l-17.6-29.7c-4.5,2-8.6,0.1-13.4-1.6c-6.7-2.6-13.7-6-21.2-9.3
		c-8.3-3.5-17-6.8-26.8-9L832.5,784.3c91.2,43.2,213.4,61.2,327.4,40.9c2-0.4,3.9-1,5.7-1.9c9.2-4.2,14.7-14.4,12.4-24.7l-4.4-18.9
		l-2.9-12.8c-2.6-11.3-13.5-18.9-24.9-16.9c-29.1,5.2-58.9,7.6-88.3,7.1c-61.8-0.4-122.3-12.5-173.4-33.5
		c-20.4-8.3-39.1-18-55.9-29.1c-47-31-78.1-71.7-71.3-120.6c7.6-53.1,50.6-95.6,97.2-129.2c56-40.3,119-67.2,150.1-79.1
		c11.1-4.2,16.6-16.1,12.9-27.3l-9.6-29.2L1617.3,767z"/>
</g>
</svg>
