<?xml version="1.0" encoding="utf-8"?>
<!-- Generator: Adobe Illustrator 22.0.0, SVG Export Plug-In . SVG Version: 6.00 Build 0)  -->
<svg version="1.1" id="Layer_1" xmlns:serif="http://www.serif.com/"
	 xmlns="http://www.w3.org/2000/svg" xmlns:xlink="http://www.w3.org/1999/xlink" x="0px" y="0px" viewBox="0 0 100 100"
	 style="enable-background:new 0 0 100 100;" xml:space="preserve">
<style type="text/css">
	.st0{fill:#E8E8E8;}
</style>
<g transform="matrix(1,0,0,1.00424,-9.04262,-46.6219)">
	<path class="st0" d="M64.3,54.8c-0.3-0.8-1.2-1.2-2-0.9c-2.4,0.9-7.3,3-11.6,6.1c-4.4,3.1-8.1,7.4-8.8,12.4
		c-0.8,5.3,2.1,10,7.2,13.3c6.4,4.2,16.4,6.2,25.7,4.6c0.9-0.2,1.4-1,1.2-1.8l-0.5-2.2c-0.2-0.8-0.9-1.3-1.7-1.2
		C66,86.5,57.4,84.8,52,81.3c-3.2-2.1-5.4-4.9-4.9-8.2c0.5-3.6,3.5-6.5,6.7-8.8c3.8-2.8,8.2-4.6,10.3-5.4c0.8-0.3,1.1-1.1,0.9-1.9
		L64.3,54.8z"/>
</g>
<g transform="matrix(0.610537,0,0,0.655275,139.436,167.224)">
	<path class="st0" d="M-169.7-115.3c0,0,2-13.7,8.7-24.5c3.8-6.1,8.9-11.4,16.9-11.1c8,0.4,12.4,5.6,15.3,11.4
		c5.3,10.7,5.4,23.9,5.6,25l9.9-1.4c-0.2-1.2-0.5-15.3-6.2-26.7c-4.4-8.9-12-16-24.1-16.5c-12-0.5-20.8,6.4-26.4,15.5
		c-7.5,12-9.7,27.2-9.7,27.2L-169.7-115.3z"/>
</g>
<g transform="matrix(1,0,0,1,-15.2385,-72.335)">
	<path class="st0" d="M59.4,131.1c6.9-1.4,11.8,0.4,15.2,1.3c1.9,0.5,3.4,0.7,4.7,0.4l-0.9-2.7c-0.4,0.1-1,0-1.5-0.1
		c-0.9-0.2-1.8-0.4-2.9-0.7c-3.6-1-8.6-2.2-15.2-0.9L59.4,131.1z"/>
</g>
<g transform="matrix(1,0,0,1,-22.3653,-71.4477)">
	<path class="st0" d="M71.7,123.2c2.2-0.8,3.7,0,4.9,0.6c1.4,0.6,2.7,1,4,0.4l-1.2-2c-0.3,0.1-0.6,0-0.9-0.1
		c-0.5-0.2-0.9-0.4-1.5-0.6c-1.6-0.7-3.6-1.3-6.4-0.3L71.7,123.2z"/>
</g>
</svg>
